<svg width="1118" height="428" viewBox="0 0 1118 428" fill="none" xmlns="http://www.w3.org/2000/svg">
<rect width="1118" height="428" fill="white"/>
<path fill-rule="evenodd" clip-rule="evenodd" d="M346.483 254.864C344.141 235.323 333.927 217.178 317.234 207.078C315.118 205.797 312.983 204.712 310.847 203.802C301.949 200.01 292.999 199.241 285.007 199.908C260.88 201.923 248.95 213.973 230.23 227.426C208.795 240.805 153.69 287.743 128.645 265.578C107.609 246.961 118.251 212.654 144.258 202.668C170.266 192.684 191.503 205.443 191.503 205.443C169.728 194.017 120.609 206.065 131.38 233.392C138.227 250.766 154.401 247.042 168.824 239.794C186.817 230.753 204.68 215.476 226.062 215.501C211.052 182.45 125.812 163.814 95.3292 220.149C94.2392 222.164 93.2597 224.219 92.3879 226.309C87.6012 237.791 86.0845 250.277 87.5178 262.239C89.8598 281.78 100.074 299.926 116.767 310.026C118.884 311.306 121.017 312.392 123.153 313.301C158.807 328.494 213.866 287.69 252.544 260.502C268.983 248.947 286.053 234.444 305.354 251.525C326.39 270.142 315.749 304.45 289.741 314.435C263.733 324.419 242.496 311.66 242.496 311.66C264.272 323.087 313.39 311.039 302.62 283.711C295.772 266.337 279.599 270.062 265.175 277.309C247.182 286.351 229.319 301.627 207.937 301.603C222.947 334.653 308.188 353.289 338.67 296.954C339.76 294.941 340.739 292.884 341.611 290.794C346.398 279.311 347.916 266.826 346.482 254.863" fill="#17BBB0"/>
<path fill-rule="evenodd" clip-rule="evenodd" d="M150.652 73C176.164 73 196.846 93.986 196.846 119.875C196.846 145.763 176.164 166.749 150.652 166.749C125.141 166.749 104.459 145.763 104.459 119.875C104.459 93.986 125.141 73 150.652 73Z" fill="#17BBB0"/>
<path fill-rule="evenodd" clip-rule="evenodd" d="M293.309 105.531C315.408 105.531 333.323 123.711 333.323 146.135C333.323 168.56 315.408 186.74 293.309 186.74C271.21 186.74 253.295 168.56 253.295 146.135C253.295 123.711 271.21 105.531 293.309 105.531Z" fill="#17BBB0"/>
<path d="M411.128 287.4H417.368V321H411.128V287.4ZM393.752 321H387.512V287.4H393.752V321ZM411.608 306.6H393.224V301.272H411.608V306.6ZM432.131 301.368H448.835V306.504H432.131V301.368ZM432.611 315.768H451.571V321H426.371V287.4H450.899V292.632H432.611V315.768ZM458.528 321V287.4H464.768V315.72H482.336V321H458.528ZM487.262 321V287.4H501.086C504.062 287.4 506.606 287.88 508.718 288.84C510.862 289.8 512.51 291.176 513.662 292.968C514.814 294.76 515.39 296.888 515.39 299.352C515.39 301.816 514.814 303.944 513.662 305.736C512.51 307.528 510.862 308.904 508.718 309.864C506.606 310.824 504.062 311.304 501.086 311.304H490.718L493.502 308.376V321H487.262ZM493.502 309.048L490.718 306.024H500.798C503.55 306.024 505.614 305.448 506.99 304.296C508.398 303.112 509.102 301.464 509.102 299.352C509.102 297.208 508.398 295.56 506.99 294.408C505.614 293.256 503.55 292.68 500.798 292.68H490.718L493.502 289.608V309.048ZM521.621 321V287.4H527.861V321H521.621ZM536.95 321V287.4H542.086L563.158 313.272H560.614V287.4H566.806V321H561.67L540.598 295.128H543.142V321H536.95ZM591.505 321.48C588.881 321.48 586.465 321.064 584.257 320.232C582.081 319.368 580.177 318.168 578.545 316.632C576.913 315.064 575.649 313.224 574.753 311.112C573.857 309 573.409 306.696 573.409 304.2C573.409 301.704 573.857 299.4 574.753 297.288C575.649 295.176 576.913 293.352 578.545 291.816C580.209 290.248 582.145 289.048 584.353 288.216C586.561 287.352 588.977 286.92 591.601 286.92C594.449 286.92 597.009 287.384 599.281 288.312C601.585 289.24 603.521 290.6 605.089 292.392L601.153 296.232C599.841 294.92 598.417 293.96 596.881 293.352C595.377 292.712 593.713 292.392 591.889 292.392C590.129 292.392 588.497 292.68 586.993 293.256C585.489 293.832 584.193 294.648 583.105 295.704C582.017 296.76 581.169 298.008 580.561 299.448C579.985 300.888 579.697 302.472 579.697 304.2C579.697 305.896 579.985 307.464 580.561 308.904C581.169 310.344 582.017 311.608 583.105 312.696C584.193 313.752 585.473 314.568 586.945 315.144C588.417 315.72 590.049 316.008 591.841 316.008C593.505 316.008 595.105 315.752 596.641 315.24C598.209 314.696 599.697 313.8 601.105 312.552L604.657 317.208C602.897 318.616 600.849 319.688 598.513 320.424C596.209 321.128 593.873 321.48 591.505 321.48ZM598.753 316.392V303.816H604.657V317.208L598.753 316.392ZM621.401 321L636.521 287.4H642.665L657.833 321H651.305L638.297 290.712H640.793L627.833 321H621.401ZM628.361 313.224L630.041 308.328H648.185L649.865 313.224H628.361ZM677.333 321.48C674.709 321.48 672.293 321.064 670.085 320.232C667.909 319.368 666.005 318.168 664.373 316.632C662.741 315.064 661.477 313.224 660.581 311.112C659.685 309 659.237 306.696 659.237 304.2C659.237 301.704 659.685 299.4 660.581 297.288C661.477 295.176 662.741 293.352 664.373 291.816C666.037 290.248 667.973 289.048 670.181 288.216C672.389 287.352 674.805 286.92 677.429 286.92C680.277 286.92 682.837 287.384 685.109 288.312C687.413 289.24 689.349 290.6 690.917 292.392L686.981 296.232C685.669 294.92 684.245 293.96 682.709 293.352C681.205 292.712 679.541 292.392 677.717 292.392C675.957 292.392 674.325 292.68 672.821 293.256C671.317 293.832 670.021 294.648 668.933 295.704C667.845 296.76 666.997 298.008 666.389 299.448C665.813 300.888 665.525 302.472 665.525 304.2C665.525 305.896 665.813 307.464 666.389 308.904C666.997 310.344 667.845 311.608 668.933 312.696C670.021 313.752 671.301 314.568 672.773 315.144C674.245 315.72 675.877 316.008 677.669 316.008C679.333 316.008 680.933 315.752 682.469 315.24C684.037 314.696 685.525 313.8 686.933 312.552L690.485 317.208C688.725 318.616 686.677 319.688 684.341 320.424C682.037 321.128 679.701 321.48 677.333 321.48ZM684.581 316.392V303.816H690.485V317.208L684.581 316.392ZM704.475 301.368H721.179V306.504H704.475V301.368ZM704.955 315.768H723.915V321H698.715V287.4H723.243V292.632H704.955V315.768Z" fill="#005B50"/>
<path d="M382.136 250L412.088 182.8H427.448L457.496 250H441.176L416.6 190.672H422.744L398.072 250H382.136ZM397.112 235.6L401.24 223.792H435.8L440.024 235.6H397.112ZM457.792 250L487.744 182.8H503.104L533.152 250H516.832L492.256 190.672H498.4L473.728 250H457.792ZM472.768 235.6L476.896 223.792H511.456L515.68 235.6H472.768ZM540.124 250V182.8H569.212C575.228 182.8 580.412 183.792 584.764 185.776C589.116 187.696 592.476 190.48 594.844 194.128C597.212 197.776 598.396 202.128 598.396 207.184C598.396 212.176 597.212 216.496 594.844 220.144C592.476 223.792 589.116 226.608 584.764 228.592C580.412 230.512 575.228 231.472 569.212 231.472H548.764L555.676 224.464V250H540.124ZM555.676 226.192L548.764 218.8H568.348C573.148 218.8 576.732 217.776 579.1 215.728C581.468 213.68 582.652 210.832 582.652 207.184C582.652 203.472 581.468 200.592 579.1 198.544C576.732 196.496 573.148 195.472 568.348 195.472H548.764L555.676 188.08V226.192ZM623.419 234.64L622.555 216.688L654.715 182.8H671.995L643.003 214L634.363 223.216L623.419 234.64ZM609.499 250V182.8H624.955V250H609.499ZM655.483 250L631.579 220.72L641.755 209.68L673.627 250H655.483ZM668.636 250L698.588 182.8H713.948L743.996 250H727.676L703.1 190.672H709.244L684.572 250H668.636ZM683.612 235.6L687.74 223.792H722.3L726.524 235.6H683.612ZM746.648 250V239.92L788.216 189.808L790.136 195.472H747.416V182.8H803.96V192.88L762.488 242.992L760.568 237.328H805.4V250H746.648ZM847.358 251.152C842.046 251.152 837.118 250.288 832.574 248.56C828.094 246.832 824.19 244.4 820.862 241.264C817.598 238.128 815.038 234.448 813.182 230.224C811.39 226 810.494 221.392 810.494 216.4C810.494 211.408 811.39 206.8 813.182 202.576C815.038 198.352 817.63 194.672 820.958 191.536C824.286 188.4 828.19 185.968 832.67 184.24C837.15 182.512 842.014 181.648 847.262 181.648C852.574 181.648 857.438 182.512 861.854 184.24C866.334 185.968 870.206 188.4 873.47 191.536C876.798 194.672 879.39 198.352 881.246 202.576C883.102 206.736 884.03 211.344 884.03 216.4C884.03 221.392 883.102 226.032 881.246 230.32C879.39 234.544 876.798 238.224 873.47 241.36C870.206 244.432 866.334 246.832 861.854 248.56C857.438 250.288 852.606 251.152 847.358 251.152ZM847.262 237.904C850.27 237.904 853.022 237.392 855.518 236.368C858.078 235.344 860.318 233.872 862.238 231.952C864.158 230.032 865.63 227.76 866.654 225.136C867.742 222.512 868.286 219.6 868.286 216.4C868.286 213.2 867.742 210.288 866.654 207.664C865.63 205.04 864.158 202.768 862.238 200.848C860.382 198.928 858.174 197.456 855.614 196.432C853.054 195.408 850.27 194.896 847.262 194.896C844.254 194.896 841.47 195.408 838.91 196.432C836.414 197.456 834.206 198.928 832.286 200.848C830.366 202.768 828.862 205.04 827.774 207.664C826.75 210.288 826.238 213.2 826.238 216.4C826.238 219.536 826.75 222.448 827.774 225.136C828.862 227.76 830.334 230.032 832.19 231.952C834.11 233.872 836.35 235.344 838.91 236.368C841.47 237.392 844.254 237.904 847.262 237.904ZM895.718 250V182.8H908.582L948.23 231.184H941.99V182.8H957.35V250H944.582L904.838 201.616H911.078V250H895.718ZM987.553 209.872H1019.91V221.968H987.553V209.872ZM988.705 237.52H1025.28V250H973.249V182.8H1024.03V195.28H988.705V237.52Z" fill="#005B50"/>
</svg>
